<?xml version="1.0"?>
<svg xmlns="http://www.w3.org/2000/svg" xmlns:xlink="http://www.w3.org/1999/xlink" version="1.1" viewBox="0 0 224 224" width="24px" height="24px"><g fill="none" fill-rule="nonzero" stroke="none" stroke-width="1" stroke-linecap="butt" stroke-linejoin="miter" stroke-miterlimit="10" stroke-dasharray="" stroke-dashoffset="0" font-family="none" font-weight="none" font-size="none" text-anchor="none" style="mix-blend-mode: normal"><path d="M0,224v-224h224v224z" fill="#4d75a3"/><g fill="#a2b1c9"><g id="surface1"><path d="M94.08,13.44c-42.105,0 -76.16,34.055 -76.16,76.16c0,42.105 34.055,76.16 76.16,76.16c15.0325,0 28.945,-4.41 40.74,-11.9l55.02,55.02l19.04,-19.04l-54.32,-54.18c9.765,-12.81 15.68,-28.6825 15.68,-46.06c0,-42.105 -34.055,-76.16 -76.16,-76.16zM94.08,31.36c32.2525,0 58.24,25.9875 58.24,58.24c0,32.2525 -25.9875,58.24 -58.24,58.24c-32.2525,0 -58.24,-25.9875 -58.24,-58.24c0,-32.2525 25.9875,-58.24 58.24,-58.24z"/></g></g></g></svg>
