<?xml version="1.0"?>
<svg xmlns="http://www.w3.org/2000/svg" xmlns:xlink="http://www.w3.org/1999/xlink" version="1.1" viewBox="0 0 224 224" width="15px" height="15px"><g fill="none" fill-rule="nonzero" stroke="none" stroke-width="1" stroke-linecap="butt" stroke-linejoin="miter" stroke-miterlimit="10" stroke-dasharray="" stroke-dashoffset="0" font-family="none" font-weight="none" font-size="none" text-anchor="none" style="mix-blend-mode: normal"><path d="M0,224v-224h224v224z" fill="none"/><g fill="#c1cfdf"><path d="M52.26667,29.86667c-1.91053,0 -3.82317,0.72777 -5.27917,2.1875l-14.93333,14.93333c-2.91947,2.91947 -2.91947,7.64633 0,10.55833l54.45417,54.45417l-54.45417,54.45417c-2.91947,2.91947 -2.91947,7.64633 0,10.55833l14.93333,14.93333c2.91947,2.91947 7.64633,2.91947 10.55833,0l54.45417,-54.45417l54.45417,54.45417c2.912,2.91947 7.64633,2.91947 10.55833,0l14.93333,-14.93333c2.91947,-2.91947 2.91947,-7.64633 0,-10.55833l-54.45417,-54.45417l54.45417,-54.45417c2.91947,-2.912 2.91947,-7.64633 0,-10.55833l-14.93333,-14.93333c-2.91947,-2.91947 -7.64633,-2.91947 -10.55833,0l-54.45417,54.45417l-54.45417,-54.45417c-1.45973,-1.45973 -3.36863,-2.1875 -5.27917,-2.1875z"/></g></g></svg>
